<?xml version="1.0" encoding="UTF-8" standalone="no"?>
<!DOCTYPE svg PUBLIC "-//W3C//DTD SVG 1.1//EN" "http://www.w3.org/Graphics/SVG/1.1/DTD/svg11.dtd">
<svg width="100%" height="100%" viewBox="0 0 3300 2550" version="1.1" xmlns="http://www.w3.org/2000/svg" xmlns:xlink="http://www.w3.org/1999/xlink" xml:space="preserve" xmlns:serif="http://www.serif.com/" style="fill-rule:evenodd;clip-rule:evenodd;stroke-linecap:round;stroke-linejoin:round;stroke-miterlimit:1.5;">
    <g transform="matrix(0.785714,0,0,1,0,0)">
        <rect x="0" y="0" width="4200" height="2550" style="fill:white;"/>
    </g>
    <g>
        <g transform="matrix(1,0,0,1,192.091,255.544)">
            <g transform="matrix(1,0,0,1,1208.63,778.536)">
                <g>
                    <text x="73px" y="196.203px" style="font-family:'Roboto-Bold', 'Roboto';font-weight:700;font-size:41.667px;">Note:</text>
                    <text x="184.816px" y="196.203px" style="font-family:'RobotoMono-Regular', 'Roboto Mono';font-size:41.667px;fill:rgb(204,51,221);">va</text>
                    <text x="234.825px" y="196.203px" style="font-family:'RobotoMono-Regular', 'Roboto Mono';font-size:41.667px;fill:rgb(204,51,221);">r</text>
                    <text x="260.245px" y="196.203px" style="font-family:'Roboto-Regular', 'Roboto';font-size:41.667px;">,</text>
                    <text x="293.469px" y="196.203px" style="font-family:'RobotoMono-Regular', 'Roboto Mono';font-size:41.667px;fill:rgb(204,51,221);">let</text>
                    <text x="393.485px" y="196.203px" style="font-family:'RobotoMono-Regular', 'Roboto Mono';font-size:41.667px;">&amp;</text>
                    <text x="73px" y="250.369px" style="font-family:'RobotoMono-Regular', 'Roboto Mono';font-size:41.667px;fill:rgb(204,51,221);">cons</text>
                    <text x="173.016px" y="250.369px" style="font-family:'RobotoMono-Regular', 'Roboto Mono';font-size:41.667px;fill:rgb(204,51,221);">t</text>
                    <text x="218.315px" y="250.369px" style="font-family:'Roboto-Regular', 'Roboto';font-size:41.667px;">ar<tspan x="255.119px " y="250.369px ">e</tspan> al</text>
                    <text x="320.915px" y="250.369px" style="font-family:'Roboto-Regular', 'Roboto';font-size:41.667px;">l</text>
                    <text x="73px" y="304.536px" style="font-family:'Roboto-Regular', 'Roboto';font-size:41.667px;">v<tspan x="93.65px " y="304.536px ">a</tspan>lid k<tspan x="192.548px 214.317px " y="304.536px 304.536px ">ey</tspan>wor<tspan x="304.384px " y="304.536px ">d</tspan>s to</text>
                    <text x="73px" y="358.703px" style="font-family:'Roboto-Regular', 'Roboto';font-size:41.667px;">declar<tspan x="188.133px " y="358.703px ">e</tspan> v<tspan x="241.172px " y="358.703px ">a</tspan>riables.</text>
                    <text x="73px" y="412.869px" style="font-family:'Roboto-Regular', 'Roboto';font-size:41.667px;">The diff<tspan x="215.944px 237.978px 251.874px " y="412.869px 412.869px 412.869px ">ere</tspan>nce</text>
                    <text x="73px" y="467.036px" style="font-family:'Roboto-Regular', 'Roboto';font-size:41.667px;">between them is</text>
                    <text x="73px" y="521.203px" style="font-family:'Roboto-Regular', 'Roboto';font-size:41.667px;">co<tspan x="118.492px 139.182px 161.216px 175.112px " y="521.203px 521.203px 521.203px 521.203px ">vere</tspan>d on page 7</text>
                    <text x="73px" y="575.369px" style="font-family:'Roboto-Regular', 'Roboto';font-size:41.667px;">of this cheatsheet.</text>
                </g>
            </g>
            <g transform="matrix(1,0,0,1,1161.28,-117.437)">
                <g transform="matrix(1,0,0,1,120.351,28.7179)">
                    <g transform="matrix(1,0,0,1,-1622,-1505)">
                        <circle cx="1674.12" cy="1804.83" r="52.12" style="fill:rgb(208,208,208);stroke:black;stroke-width:8.33px;"/>
                    </g>
                    <g transform="matrix(1,0,0,1,-1648.8,-1492.15)">
                        <text x="1673.38px" y="1818.19px" style="font-family:'Chalkboard', cursive;font-size:83.333px;">2</text>
                    </g>
                </g>
                <g transform="matrix(1,0,0,1,-116.336,-698.614)">
                    <text x="382.142px" y="1050.01px" style="font-family:'Roboto-Bold', 'Roboto';font-weight:700;font-size:83.333px;fill:rgb(0,51,255);">Basic V<tspan x="660.299px " y="1050.01px ">o</tspan>cabular<tspan x="986.634px " y="1050.01px ">y</tspan></text>
                </g>
                <g transform="matrix(0.783832,-0.000609985,0.000578313,0.743134,161.928,106.456)">
                    <path d="M992.87,302.977C992.87,302.606 2168.13,302 2168.13,302" style="fill:none;stroke:rgb(208,208,208);stroke-width:8.18px;"/>
                </g>
            </g>
            <g transform="matrix(1,0,0,1,923.228,136.568)">
                <text x="1558.02px" y="973.086px" style="font-family:'Roboto-Bold', 'Roboto';font-weight:700;font-size:50px;">Expression</text>
                <text x="1558.02px" y="1039.75px" style="font-family:'Roboto-Regular', 'Roboto';font-size:50px;">A r<tspan x="1619.5px 1645.94px 1662.61px 1689.05px 1705.73px " y="1039.75px 1039.75px 1039.75px 1039.75px 1039.75px ">efere</tspan>nce, v<tspan x="1860.63px " y="1039.75px ">a</tspan>lue or a</text>
                <text x="1558.02px" y="1106.42px" style="font-family:'Roboto-Regular', 'Roboto';font-size:50px;">gr<tspan x="1603.09px " y="1106.42px ">o</tspan>up of r<tspan x="1775.55px 1801.99px 1818.67px 1845.11px 1861.78px " y="1106.42px 1106.42px 1106.42px 1106.42px 1106.42px ">efere</tspan>nce(s)</text>
                <text x="1558.02px" y="1173.09px" style="font-family:'Roboto-Regular', 'Roboto';font-size:50px;">and v<tspan x="1679.55px " y="1173.09px ">a</tspan>lue(s) combined</text>
                <text x="1558.02px" y="1239.75px" style="font-family:'Roboto-Regular', 'Roboto';font-size:50px;">with operator(s),</text>
                <text x="1939.12px" y="1239.75px" style="font-family:'Roboto-Bold', 'Roboto';font-weight:700;font-size:50px;">which</text>
                <text x="1558.02px" y="1306.42px" style="font-family:'Roboto-Bold', 'Roboto';font-weight:700;font-size:50px;">result in a single v<tspan x="1965.57px " y="1306.42px ">a</tspan>lue.</text>
            </g>
            <g transform="matrix(1,0,0,1,-236.389,-626.544)">
                <text x="1558.02px" y="973.086px" style="font-family:'Roboto-Bold', 'Roboto';font-weight:700;font-size:50px;">V<tspan x="1588.51px " y="973.086px ">a</tspan>riable</text>
                <text x="1558.02px" y="1039.75px" style="font-family:'Roboto-Regular', 'Roboto';font-size:50px;">A named r<tspan x="1786.39px 1812.83px 1829.51px 1855.95px 1872.62px " y="1039.75px 1039.75px 1039.75px 1039.75px 1039.75px ">efere</tspan>nce to</text>
                <text x="1558.02px" y="1106.42px" style="font-family:'Roboto-Regular', 'Roboto';font-size:50px;">a v<tspan x="1622.72px " y="1106.42px ">a</tspan>lue is a v<tspan x="1845.96px " y="1106.42px ">a</tspan>riable.</text>
            </g>
            <g transform="matrix(1,0,0,1,198.107,28.2344)">
                <text x="1558.02px" y="973.086px" style="font-family:'Roboto-Bold', 'Roboto';font-weight:700;font-size:50px;">K<tspan x="1589.59px 1615.69px " y="973.086px 973.086px ">ey</tspan>word / reser<tspan x="1911.41px 1936.59px " y="973.086px 973.086px ">ve</tspan>d word</text>
                <text x="1558.02px" y="1039.75px" style="font-family:'Roboto-Regular', 'Roboto';font-size:50px;">Any wor<tspan x="1739.32px " y="1039.75px ">d</tspan> that is par<tspan x="2007.7px " y="1039.75px ">t</tspan> of</text>
                <text x="1558.02px" y="1106.42px" style="font-family:'Roboto-Regular', 'Roboto';font-size:50px;">the v<tspan x="1667.37px " y="1106.42px ">o</tspan>cabular<tspan x="1864.32px " y="1106.42px ">y</tspan> of the</text>
                <text x="1558.02px" y="1173.09px" style="font-family:'Roboto-Regular', 'Roboto';font-size:50px;">pr<tspan x="1603.09px " y="1173.09px ">o</tspan>gramming language is</text>
                <text x="1558.02px" y="1239.75px" style="font-family:'Roboto-Regular', 'Roboto';font-size:50px;">called a k<tspan x="1769.59px 1795.72px " y="1239.75px 1239.75px ">ey</tspan>wor<tspan x="1903.8px " y="1239.75px ">d</tspan></text>
                <text x="1558.02px" y="1306.42px" style="font-family:'Roboto-Regular', 'Roboto';font-size:50px;">(a.k.a r<tspan x="1711.07px " y="1306.42px ">e</tspan>ser<tspan x="1807.68px 1832.51px " y="1306.42px 1306.42px ">ve</tspan>d wor<tspan x="1982.73px " y="1306.42px ">d</tspan>).</text>
                <text x="1558.02px" y="1373.09px" style="font-family:'Roboto-Regular', 'Roboto';font-size:50px;">Examples:</text>
                <text x="1802.24px" y="1373.09px" style="font-family:'Roboto-Regular', 'Roboto';font-size:50px;fill:rgb(204,51,221);">v<tspan x="1827.02px " y="1373.09px ">a</tspan>r  =  +  if  for<tspan x="2116.05px " y="1373.09px ">.</tspan>..</text>
            </g>
            <g transform="matrix(1,0,0,1,560.39,-646.544)">
                <text x="1558.02px" y="973.086px" style="font-family:'Roboto-Bold', 'Roboto';font-weight:700;font-size:50px;">Operator</text>
                <text x="1558.02px" y="1039.75px" style="font-family:'Roboto-Regular', 'Roboto';font-size:50px;">Operators ar<tspan x="1837.17px " y="1039.75px ">e</tspan> r<tspan x="1892.71px " y="1039.75px ">e</tspan>ser<tspan x="1989.32px 2014.15px " y="1039.75px 1039.75px ">ve</tspan>d-wor<tspan x="2165.64px " y="1039.75px ">d</tspan>s that</text>
                <text x="1558.02px" y="1106.42px" style="font-family:'Roboto-Regular', 'Roboto';font-size:50px;">per<tspan x="1630.38px " y="1106.42px ">f</tspan>orm action on v<tspan x="1996.55px " y="1106.42px ">a</tspan>lues and v<tspan x="2251.6px " y="1106.42px ">a</tspan>riables.</text>
                <text x="1558.02px" y="1173.09px" style="font-family:'Roboto-Regular', 'Roboto';font-size:50px;">Examples:</text>
                <text x="1802.24px" y="1173.09px" style="font-family:'Roboto-Regular', 'Roboto';font-size:50px;fill:rgb(204,51,221);">+  -  =  *  in  ===  typeof</text>
                <text x="2336.44px" y="1173.09px" style="font-family:'Roboto-Regular', 'Roboto';font-size:50px;fill:rgb(204,51,221);">!</text>
                <text x="2348.1px" y="1173.09px" style="font-family:'Roboto-Regular', 'Roboto';font-size:50px;fill:rgb(204,51,221);">=</text>
                <text x="2388.68px" y="1173.09px" style="font-family:'Roboto-Regular', 'Roboto';font-size:50px;">...</text>
            </g>
            <g transform="matrix(1,0,0,1,768.131,-342.15)">
                <text x="1650px" y="1004.09px" style="font-family:'Roboto-Bold', 'Roboto';font-weight:700;font-size:50px;">Statement</text>
                <text x="1650px" y="1070.75px" style="font-family:'Roboto-Regular', 'Roboto';font-size:50px;">A gr<tspan x="1739.87px " y="1070.75px ">o</tspan>up of wor<tspan x="1978.59px " y="1070.75px ">d</tspan>s, numbers</text>
                <text x="1650px" y="1137.42px" style="font-family:'Roboto-Regular', 'Roboto';font-size:50px;">and operators that</text>
                <text x="2078.98px" y="1137.42px" style="font-family:'Roboto-Bold', 'Roboto';font-weight:700;font-size:50px;">do a</text>
                <text x="1650px" y="1204.09px" style="font-family:'Roboto-Bold', 'Roboto';font-weight:700;font-size:50px;">task</text>
                <text x="1759.3px" y="1204.09px" style="font-family:'Roboto-Regular', 'Roboto';font-size:50px;">is a statement.</text>
            </g>
            <g transform="matrix(2.54359,0,0,2.54359,650.793,511.481)">
                <g transform="matrix(0.695334,0,0,0.553583,229.557,-45.1045)">
                    <rect x="26.54" y="161" width="572.46" height="156" style="fill:rgb(236,236,236);"/>
                </g>
                <g id="_-var-a---7----2---" serif:id="(var a = 7 + &quot;2&quot;;)" transform="matrix(0.718065,0,0,0.718065,186.613,-139.443)">
                    <text x="147px" y="329px" style="font-family:'RobotoMono-Regular', 'Roboto Mono';font-size:45.625px;fill:rgb(204,51,221);">var</text>
                    <text x="256.519px" y="329px" style="font-family:'RobotoMono-Regular', 'Roboto Mono';font-size:45.625px;fill:rgb(0,51,255);">a</text>
                    <text x="311.279px" y="329px" style="font-family:'RobotoMono-Regular', 'Roboto Mono';font-size:45.625px;">=</text>
                    <text x="366.038px" y="329px" style="font-family:'RobotoMono-Regular', 'Roboto Mono';font-size:45.625px;fill:rgb(0,51,255);">7</text>
                    <text x="420.798px" y="329px" style="font-family:'RobotoMono-Regular', 'Roboto Mono';font-size:45.625px;">+</text>
                    <text x="475.557px" y="329px" style="font-family:'RobotoMono-Regular', 'Roboto Mono';font-size:45.625px;fill:rgb(204,51,51);">&quot;2&quot;</text>
                    <text x="557.696px" y="329px" style="font-family:'RobotoMono-Regular', 'Roboto Mono';font-size:45.625px;">;</text>
                </g>
            </g>
            <g transform="matrix(7.896e-17,-1.28951,1.26371,7.73799e-17,1159.04,1767.38)">
                <text x="670.343px" y="728.683px" style="font-family:'NixieOne-Regular', 'Nixie One';font-size:298.016px;">{</text>
            </g>
            <g transform="matrix(-1.28951,-1.5792e-16,9.6028e-17,-0.784128,3216.22,1232.23)">
                <text x="670.343px" y="728.683px" style="font-family:'NixieOne-Regular', 'Nixie One';font-size:298.016px;">{</text>
            </g>
            <g transform="matrix(2.29845,1.55718,1.6026,-2.36549,1364.61,1204)">
                <g transform="matrix(1.15262,0.0199254,-0.0213492,1.44624,-248.122,-272.003)">
                    <path d="M143.45,347.471C153.983,342.401 168.894,338.475 186.493,330.005" style="fill:none;stroke:black;stroke-width:2.25px;"/>
                </g>
                <g transform="matrix(0.0912265,-0.559084,0.665283,0.141341,-289.239,306.438)">
                    <path d="M232.477,336C270.506,345.522 265.092,348.722 262,315" style="fill:none;stroke:black;stroke-width:4.88px;"/>
                </g>
            </g>
            <g transform="matrix(2.69701,0.658626,0.677838,-2.77568,2016.89,1536.69)">
                <g transform="matrix(1.15262,0.0199254,-0.0213492,1.44624,-248.122,-272.003)">
                    <path d="M208.372,351.856C241.937,356.413 309.283,343.732 326.882,335.262" style="fill:none;stroke:black;stroke-width:2.25px;"/>
                </g>
                <g transform="matrix(0.0912265,-0.559084,0.665283,0.141341,-130.631,318.545)">
                    <path d="M232.477,336C270.506,345.522 265.092,348.722 262,315" style="fill:none;stroke:black;stroke-width:4.88px;"/>
                </g>
            </g>
            <g transform="matrix(-2.73445,-0.48006,-0.494063,2.81421,1504.15,192.532)">
                <g transform="matrix(1.15262,0.0199254,-0.0213492,1.44624,-248.122,-272.003)">
                    <path d="M111.742,351.801C122.275,346.731 161.445,334.672 186.493,330.005" style="fill:none;stroke:black;stroke-width:2.25px;"/>
                </g>
                <g transform="matrix(0.0912265,-0.559084,0.665283,0.141341,-288.909,306.151)">
                    <path d="M232.477,336C268.885,345.116 265.475,348.438 262.404,319.113C262.268,317.808 262.132,316.437 262,315" style="fill:none;stroke:black;stroke-width:4.88px;"/>
                </g>
            </g>
            <g transform="matrix(0.0209544,2.77618,2.69378,-0.0228736,1166.8,762.006)">
                <g transform="matrix(1.15262,0.0199254,-0.0213492,1.44624,-248.122,-272.003)">
                    <path d="M109.184,425.933C119.717,420.863 168.894,338.475 186.493,330.005" style="fill:none;stroke:black;stroke-width:2.34px;"/>
                </g>
                <g transform="matrix(0.0912265,-0.559084,0.665283,0.141341,-288.865,305.846)">
                    <path d="M232.477,336C270.506,345.522 265.092,348.722 262,315" style="fill:none;stroke:black;stroke-width:4.94px;"/>
                </g>
            </g>
            <g transform="matrix(0.0209544,2.77618,2.69378,-0.0228736,1347.46,760.006)">
                <g transform="matrix(1.15262,0.0199254,-0.0213492,1.44624,-248.122,-272.003)">
                    <path d="M108.691,379.488C119.224,374.419 170.107,345.619 187.706,337.148" style="fill:none;stroke:black;stroke-width:2.34px;"/>
                </g>
                <g transform="matrix(0.0912265,-0.559084,0.665283,0.141341,-288.059,316.234)">
                    <path d="M232.477,336C270.506,345.522 265.092,348.722 262,315" style="fill:none;stroke:black;stroke-width:4.94px;"/>
                </g>
            </g>
        </g>
        <g transform="matrix(1,0,0,1,186.61,127.271)">
            <g transform="matrix(1,0,0,1,-245.587,10.8363)">
                <g transform="matrix(1,0,0,1,120.351,28.7179)">
                    <g transform="matrix(1,0,0,1,-1622,-1505)">
                        <circle cx="1674.12" cy="1804.83" r="52.12" style="fill:rgb(208,208,208);stroke:black;stroke-width:8.33px;"/>
                    </g>
                    <g transform="matrix(1,0,0,1,-1644.8,-1492.15)">
                        <text x="1681.62px" y="1818.19px" style="font-family:'Chalkboard', cursive;font-size:83.333px;">1</text>
                    </g>
                </g>
                <g transform="matrix(1,0,0,1,-116.336,-698.614)">
                    <text x="382.142px" y="1050.01px" style="font-family:'Roboto-Bold', 'Roboto';font-weight:700;font-size:83.333px;fill:rgb(0,51,255);">Se<tspan x="478.496px 520.447px " y="1050.01px 1050.01px ">ve</tspan>n (7) T<tspan x="802.47px " y="1050.01px ">y</tspan>pes</text>
                </g>
                <g transform="matrix(0.510076,0,0,0.510076,388.407,170.406)">
                    <path d="M992.87,302.977C992.87,302.606 2096.83,302 2096.83,302" style="fill:none;stroke:rgb(208,208,208);stroke-width:12.25px;"/>
                </g>
            </g>
            <g transform="matrix(1,0,0,1,48.7637,360.6)">
                <text x="73px" y="175.086px" style="font-family:'Roboto-Regular', 'Roboto';font-size:50px;">1.  String</text>
                <text x="73px" y="262.586px" style="font-family:'Roboto-Regular', 'Roboto';font-size:50px;">2.  Number</text>
                <text x="73px" y="350.086px" style="font-family:'Roboto-Regular', 'Roboto';font-size:50px;">3.  Boolean</text>
                <text x="73px" y="437.586px" style="font-family:'Roboto-Regular', 'Roboto';font-size:50px;">4.  Null</text>
                <text x="73px" y="525.086px" style="font-family:'Roboto-Regular', 'Roboto';font-size:50px;">5.  Undeﬁned</text>
                <text x="73px" y="612.586px" style="font-family:'Roboto-Regular', 'Roboto';font-size:50px;">6.  Symbol</text>
                <text x="73px" y="787.586px" style="font-family:'Roboto-Regular', 'Roboto';font-size:50px;">7.  Object</text>
                <text x="147.561px" y="875.086px" style="font-family:'Roboto-Regular', 'Roboto';font-size:50px;">-  Arra<tspan x="279.885px " y="875.086px ">y</tspan></text>
                <text x="147.561px" y="962.586px" style="font-family:'Roboto-Regular', 'Roboto';font-size:50px;">-  F<tspan x="214.699px " y="962.586px ">u</tspan>nction</text>
            </g>
            <g transform="matrix(1,0,0,1,-40,0)">
                <g transform="matrix(1.25857,0,0,6.23434,498.483,-566.437)">
                    <rect x="26.54" y="161" width="572.46" height="156" style="fill:rgb(236,236,236);"/>
                </g>
                <g transform="matrix(1,0,0,1,522.764,360.6)">
                    <text x="73px" y="174.5px" style="font-family:'RobotoMono-Regular', 'Roboto Mono';font-size:50px;">&quot;</text>
                    <text x="103.005px" y="174.5px" style="font-family:'RobotoMono-Regular', 'Roboto Mono';font-size:50px;fill:rgb(204,51,51);">Any text</text>
                    <text x="343.044px" y="174.5px" style="font-family:'RobotoMono-Regular', 'Roboto Mono';font-size:50px;">&quot;</text>
                    <text x="73px" y="262px" style="font-family:'RobotoMono-Regular', 'Roboto Mono';font-size:50px;fill:rgb(0,51,255);">123.45</text>
                    <text x="73px" y="349.5px" style="font-family:'RobotoMono-Regular', 'Roboto Mono';font-size:50px;fill:rgb(0,51,255);">true</text>
                    <text x="223.024px" y="349.5px" style="font-family:'RobotoMono-Regular', 'Roboto Mono';font-size:50px;">or</text>
                    <text x="313.039px" y="349.5px" style="font-family:'RobotoMono-Regular', 'Roboto Mono';font-size:50px;fill:rgb(0,51,255);">false</text>
                    <text x="73px" y="437px" style="font-family:'RobotoMono-Regular', 'Roboto Mono';font-size:50px;fill:rgb(204,51,221);">null</text>
                    <text x="73px" y="524.5px" style="font-family:'RobotoMono-Regular', 'Roboto Mono';font-size:50px;fill:rgb(204,51,221);">undefined</text>
                    <text x="73px" y="612px" style="font-family:'RobotoMono-Regular', 'Roboto Mono';font-size:50px;fill:rgb(204,51,51);">Symbol(&apos;something&apos;)</text>
                    <text x="73px" y="787px" style="font-family:'RobotoMono-Regular', 'Roboto Mono';font-size:50px;">{</text>
                    <text x="133.01px" y="787px" style="font-family:'RobotoMono-Regular', 'Roboto Mono';font-size:50px;fill:rgb(204,51,51);">key</text>
                    <text x="223.024px" y="787px" style="font-family:'RobotoMono-Regular', 'Roboto Mono';font-size:50px;">: &apos;</text>
                    <text x="313.039px" y="787px" style="font-family:'RobotoMono-Regular', 'Roboto Mono';font-size:50px;fill:rgb(204,51,51);">value</text>
                    <text x="463.063px" y="787px" style="font-family:'RobotoMono-Regular', 'Roboto Mono';font-size:50px;">&apos;}</text>
                    <text x="73px" y="874.5px" style="font-family:'RobotoMono-Regular', 'Roboto Mono';font-size:50px;">[</text>
                    <text x="103.005px" y="874.5px" style="font-family:'RobotoMono-Regular', 'Roboto Mono';font-size:50px;fill:rgb(0,51,255);">1</text>
                    <text x="133.01px" y="874.5px" style="font-family:'RobotoMono-Regular', 'Roboto Mono';font-size:50px;">, &quot;</text>
                    <text x="223.024px" y="874.5px" style="font-family:'RobotoMono-Regular', 'Roboto Mono';font-size:50px;fill:rgb(204,51,51);">text</text>
                    <text x="343.044px" y="874.5px" style="font-family:'RobotoMono-Regular', 'Roboto Mono';font-size:50px;">&quot;,</text>
                    <text x="433.059px" y="874.5px" style="font-family:'RobotoMono-Regular', 'Roboto Mono';font-size:50px;fill:rgb(0,51,255);">false</text>
                    <text x="583.107px" y="874.5px" style="font-family:'RobotoMono-Regular', 'Roboto Mono';font-size:50px;">]</text>
                    <text x="73px" y="962px" style="font-family:'RobotoMono-Regular', 'Roboto Mono';font-size:50px;fill:rgb(0,51,255);">function</text>
                    <text x="343.068px" y="962px" style="font-family:'RobotoMono-Regular', 'Roboto Mono';font-size:50px;fill:rgb(204,51,204);">name</text>
                    <text x="463.088px" y="962px" style="font-family:'RobotoMono-Regular', 'Roboto Mono';font-size:50px;">() { }</text>
                </g>
            </g>
            <g transform="matrix(1.28951,0,0,1.81222,-883.463,-420.376)">
                <text x="670.343px" y="728.683px" style="font-family:'NixieOne-Regular', 'Nixie One';font-size:298.016px;">{</text>
            </g>
            <g transform="matrix(6.12323e-17,-1,1,6.12323e-17,-716.1,1585.67)">
                <text x="635.025px" y="642.711px" style="font-family:'Roboto-Bold', 'Roboto';font-weight:700;font-size:50px;">Six Primitiv<tspan x="894.107px " y="642.711px ">e</tspan> T<tspan x="959.195px " y="642.711px ">y</tspan>pes</text>
            </g>
        </g>
        <g transform="matrix(1,0,0,1,186.61,985.918)">
            <g transform="matrix(1,0,0,1,902.878,240.048)">
                <g transform="matrix(1.99975,0,0,4.43507,-161.188,-236.754)">
                    <rect x="26.54" y="161" width="572.46" height="156" style="fill:rgb(236,236,236);"/>
                </g>
                <g transform="matrix(1,0,0,1,-117.236,400.6)">
                    <text x="73px" y="174.5px" style="font-family:'RobotoMono-Regular', 'Roboto Mono';font-size:50px;fill:rgb(204,51,221);">var</text>
                    <text x="193.02px" y="174.5px" style="font-family:'RobotoMono-Regular', 'Roboto Mono';font-size:50px;fill:rgb(0,51,255);">user</text>
                    <text x="343.044px" y="174.5px" style="font-family:'RobotoMono-Regular', 'Roboto Mono';font-size:50px;">= {</text>
                    <text x="133.01px" y="262px" style="font-family:'RobotoMono-Regular', 'Roboto Mono';font-size:50px;">name: &quot;</text>
                    <text x="343.044px" y="262px" style="font-family:'RobotoMono-Regular', 'Roboto Mono';font-size:50px;fill:rgb(204,51,51);">Aziz Al</text>
                    <text x="553.078px" y="262px" style="font-family:'RobotoMono-Regular', 'Roboto Mono';font-size:50px;fill:rgb(204,51,51);">i</text>
                    <text x="581.583px" y="262px" style="font-family:'RobotoMono-Regular', 'Roboto Mono';font-size:50px;">&quot;,</text>
                    <text x="133.01px" y="349.5px" style="font-family:'RobotoMono-Regular', 'Roboto Mono';font-size:50px;">yearOfBirth:</text>
                    <text x="523.098px" y="349.5px" style="font-family:'RobotoMono-Regular', 'Roboto Mono';font-size:50px;fill:rgb(0,51,255);">19</text>
                    <text x="583.107px" y="349.5px" style="font-family:'RobotoMono-Regular', 'Roboto Mono';font-size:50px;fill:rgb(0,51,255);">8</text>
                    <text x="611.612px" y="349.5px" style="font-family:'RobotoMono-Regular', 'Roboto Mono';font-size:50px;fill:rgb(0,51,255);">8</text>
                    <text x="641.617px" y="349.5px" style="font-family:'RobotoMono-Regular', 'Roboto Mono';font-size:50px;">,</text>
                    <text x="133.01px" y="437px" style="font-family:'RobotoMono-Regular', 'Roboto Mono';font-size:50px;">calculateAge:</text>
                    <text x="553.078px" y="437px" style="font-family:'RobotoMono-Regular', 'Roboto Mono';font-size:50px;fill:rgb(0,51,255);">function</text>
                    <text x="793.142px" y="437px" style="font-family:'RobotoMono-Regular', 'Roboto Mono';font-size:50px;">(){</text>
                    <text x="193.02px" y="524.5px" style="font-family:'RobotoMono-Regular', 'Roboto Mono';font-size:50px;fill:rgb(128,128,128);">// some code to calculate age</text>
                    <text x="133.01px" y="612px" style="font-family:'RobotoMono-Regular', 'Roboto Mono';font-size:50px;">}</text>
                    <text x="73px" y="699.5px" style="font-family:'RobotoMono-Regular', 'Roboto Mono';font-size:50px;">}</text>
                </g>
            </g>
            <g>
                <g transform="matrix(1,0,0,1,-186.61,-985.918)">
                    <path d="M1045.25,2044.52L571.723,2194.21" style="fill:none;stroke:black;stroke-width:8.33px;"/>
                </g>
                <g transform="matrix(1,0,0,1,-186.61,-985.918)">
                    <path d="M1045.25,1967.28L568.32,2196.31" style="fill:none;stroke:black;stroke-width:8.33px;"/>
                </g>
                <g transform="matrix(1,0,0,1,-186.61,-985.918)">
                    <path d="M1045.25,1882.68L569.137,2193.72" style="fill:none;stroke:black;stroke-width:8.33px;"/>
                </g>
                <g transform="matrix(1,0,0,1,-216.61,-964.918)">
                    <path d="M1045.25,1846.16C1097.23,1862.98 1097.23,1867.35 1045.25,1899.29" style="fill:none;stroke:black;stroke-width:8.33px;"/>
                </g>
                <g transform="matrix(1,0,0,1,-216.61,-884.918)">
                    <path d="M1045.25,1846.16C1097.23,1862.98 1097.23,1867.35 1045.25,1899.29" style="fill:none;stroke:black;stroke-width:8.33px;"/>
                </g>
                <g transform="matrix(1,0,0,1,-216.61,-808.918)">
                    <path d="M1045.25,1846.16C1097.23,1862.98 1097.23,1867.35 1045.25,1899.29" style="fill:none;stroke:black;stroke-width:8.33px;"/>
                </g>
            </g>
            <g transform="matrix(-1.28951,-1.5792e-16,1.86172e-16,-1.52021,2833.83,1998.67)">
                <text x="670.343px" y="728.683px" style="font-family:'NixieOne-Regular', 'Nixie One';font-size:298.016px;">{</text>
            </g>
            <g transform="matrix(-1,-1.22465e-16,1.22465e-16,-1,2702.77,3276.06)">
                <path d="M1175.1,2172.77C1138.97,1954.95 781.916,1829.03 138.018,2074.76" style="fill:none;stroke:black;stroke-width:8.33px;"/>
            </g>
            <g transform="matrix(-0.259787,-0.965666,0.965666,-0.259787,3.58785,2628.3)">
                <path d="M1045.25,1846.16C1097.23,1862.98 1097.23,1867.35 1045.25,1899.29" style="fill:none;stroke:black;stroke-width:8.33px;"/>
            </g>
            <g transform="matrix(1,0,0,1,-265.795,-999.864)">
                <text x="512.879px" y="2226.27px" style="font-family:'Roboto-Bold', 'Roboto';font-weight:700;font-size:50px;">K<tspan x="544.446px 570.545px " y="2226.27px 2226.27px ">ey</tspan></text>
                <text x="512.879px" y="2292.94px" style="font-family:'Roboto-Regular', 'Roboto';font-size:50px;">These ar<tspan x="706.214px " y="2292.94px ">e</tspan> the</text>
                <text x="512.879px" y="2359.61px" style="font-family:'Roboto-Regular', 'Roboto';font-size:50px;">k<tspan x="538.025px 564.148px " y="2359.61px 2359.61px ">ey</tspan>s in</text>
                <text x="681.311px" y="2359.61px" style="font-family:'Roboto-Regular', 'Roboto';font-size:50px;fill:rgb(0,51,255);">user</text>
                <text x="791.883px" y="2359.61px" style="font-family:'Roboto-Regular', 'Roboto';font-size:50px;">object.</text>
            </g>
            <g transform="matrix(1,0,0,1,-768.755,-882.662)">
                <text x="2784.28px" y="1773.42px" style="font-family:'Roboto-Bold', 'Roboto';font-weight:700;font-size:50px;">V<tspan x="2814.78px " y="1773.42px ">a</tspan>lue</text>
                <text x="2784.28px" y="1840.08px" style="font-family:'Roboto-Regular', 'Roboto';font-size:50px;">These ar<tspan x="2977.62px " y="1840.08px ">e</tspan> the</text>
                <text x="2784.28px" y="1906.75px" style="font-family:'Roboto-Regular', 'Roboto';font-size:50px;">v<tspan x="2809.06px " y="1906.75px ">a</tspan>lues of the</text>
                <text x="2784.28px" y="1973.42px" style="font-family:'Roboto-Regular', 'Roboto';font-size:50px;">r<tspan x="2800.96px " y="1973.42px ">e</tspan>spectiv<tspan x="2989.66px " y="1973.42px ">e</tspan> k<tspan x="3053.67px 3079.79px " y="1973.42px 1973.42px ">ey</tspan>s</text>
                <text x="2784.28px" y="2040.08px" style="font-family:'Roboto-Regular', 'Roboto';font-size:50px;">in</text>
                <text x="2837.73px" y="2040.08px" style="font-family:'Roboto-Regular', 'Roboto';font-size:50px;fill:rgb(0,51,255);">user</text>
                <text x="2948.3px" y="2040.08px" style="font-family:'Roboto-Regular', 'Roboto';font-size:50px;">object.</text>
            </g>
            <g transform="matrix(1,0,0,1,-233.334,-882.662)">
                <text x="2784.28px" y="1773.42px" style="font-family:'Roboto-Bold', 'Roboto';font-weight:700;font-size:50px;">Method</text>
                <text x="2784.28px" y="1840.08px" style="font-family:'Roboto-Regular', 'Roboto';font-size:50px;">If a k<tspan x="2893.17px 2919.29px " y="1840.08px 1840.08px ">ey</tspan> has a</text>
                <text x="2784.28px" y="1906.75px" style="font-family:'Roboto-Regular', 'Roboto';font-size:50px;">function as a</text>
                <text x="2784.28px" y="1973.42px" style="font-family:'Roboto-Regular', 'Roboto';font-size:50px;">v<tspan x="2809.06px " y="1973.42px ">a</tspan>lue, its called</text>
                <text x="2784.28px" y="2040.08px" style="font-family:'Roboto-Regular', 'Roboto';font-size:50px;">a method.</text>
            </g>
            <g transform="matrix(1,0,0,1,-245.587,320.836)">
                <g transform="matrix(1,0,0,1,120.351,28.7179)">
                    <g transform="matrix(1,0,0,1,-1622,-1505)">
                        <circle cx="1674.12" cy="1804.83" r="52.12" style="fill:rgb(208,208,208);stroke:black;stroke-width:8.33px;"/>
                    </g>
                    <g transform="matrix(1,0,0,1,-1644.8,-1492.15)">
                        <text x="1673.38px" y="1818.19px" style="font-family:'Chalkboard', cursive;font-size:83.333px;">3</text>
                    </g>
                </g>
                <g transform="matrix(1,0,0,1,-116.336,-698.614)">
                    <text x="382.142px" y="1050.01px" style="font-family:'Roboto-Bold', 'Roboto';font-weight:700;font-size:83.333px;fill:rgb(0,51,255);">Object</text>
                </g>
                <g transform="matrix(0.510076,0,0,0.510076,388.407,170.406)">
                    <path d="M306.698,302.977C306.698,302.606 2091.67,302 2091.67,302" style="fill:none;stroke:rgb(208,208,208);stroke-width:12.25px;"/>
                </g>
            </g>
            <g transform="matrix(1,0,0,1,-186.61,-985.918)">
                <text x="61.759px" y="1780.23px" style="font-family:'Roboto-Regular', 'Roboto';font-size:50px;">An object is a data type in</text>
                <text x="61.759px" y="1846.9px" style="font-family:'Roboto-Regular', 'Roboto';font-size:50px;">Ja<tspan x="116.471px 141.251px " y="1846.9px 1846.9px ">va</tspan>Script that is used to stor<tspan x="736.905px " y="1846.9px ">e</tspan></text>
                <text x="61.759px" y="1913.57px" style="font-family:'Roboto-Regular', 'Roboto';font-size:50px;">a combination of data in a</text>
                <text x="61.759px" y="1980.23px" style="font-family:'Roboto-Regular', 'Roboto';font-size:50px;">simple k<tspan x="249.234px 275.357px " y="1980.23px 1980.23px ">ey</tspan>-v<tspan x="338.98px " y="1980.23px ">a</tspan>lue pair<tspan x="527.799px " y="1980.23px ">.</tspan> Thats it.</text>
            </g>
        </g>
    </g>
    <g transform="matrix(1,0,0,1,-900,4.54747e-13)">
        <g transform="matrix(0.936037,0,0,0.711279,0,736.238)">
            <path d="M4487,2550L961.5,2550L961.5,2369.28C961.5,2369.28 1985.45,2396.67 2496.32,2369.28C3083.9,2337.78 4487,2180.27 4487,2180.27L4487,2550Z" style="fill:rgb(0,51,255);"/>
        </g>
        <g transform="matrix(2.16918,-1.73272,-1.78326,-2.23246,4000.89,2788.29)">
            <g opacity="0.72">
                <g transform="matrix(0.35077,0.00606375,-0.0213492,1.44624,-108.277,-268.954)">
                    <path d="M-172.338,381.932C1.23,374.292 146.237,343.718 200.739,312.438" style="fill:none;stroke:white;stroke-width:2.77px;"/>
                </g>
                <g transform="matrix(-0.141281,-0.549169,0.669137,-0.12297,-235.551,369.6)">
                    <path d="M232.477,336C270.506,345.522 265.092,348.722 262,315" style="fill:none;stroke:white;stroke-width:4.88px;"/>
                </g>
            </g>
        </g>
        <g transform="matrix(1,0,0,1,1423.73,35.4419)">
            <text x="490.115px" y="2474.4px" style="font-family:'Roboto-Italic', 'Roboto';font-style:italic;font-size:41.667px;fill:white;">&quot;Don<tspan x="573.184px " y="2474.4px ">&apos;</tspan>t just learn Ja<tspan x="822.227px 841.698px " y="2474.4px 2474.4px ">va</tspan>Script - Become a F<tspan x="1205.87px " y="2474.4px ">u</tspan>ll-Stack Ja<tspan x="1412.07px 1431.54px " y="2474.4px 2474.4px ">va</tspan>Script De<tspan x="1613.91px 1633.42px " y="2474.4px 2474.4px ">ve</tspan>loper<tspan x="1743.8px " y="2474.4px ">&quot;</tspan></text>
        </g>
        <g transform="matrix(1,0,0,1,1993.73,35.8003)">
            <text x="1656.26px" y="2460.79px" style="font-family:'Roboto-Regular', 'Roboto';font-size:41.667px;fill:white;">https://iLoveCoding.org</text>
        </g>
        <g transform="matrix(0.062767,0,0,0.062767,3605.27,2333.88)">
            <g id="bigger" transform="matrix(11.1111,0,0,11.1111,54.8868,211.244)">
                <g id="_----" serif:id="&lt; &gt; " transform="matrix(1.61494,0,0,1.61494,2.39238,165.67)">
                    <path d="M34.596,-76.031L37.68,-72.947C38.664,-71.963 39.133,-71.136 39.088,-70.466C39.043,-69.795 38.529,-68.969 37.546,-67.985L15.823,-46.396L37.546,-24.807C38.529,-23.824 39.043,-22.997 39.088,-22.326C39.133,-21.656 38.664,-20.829 37.68,-19.846L34.596,-16.762L7.107,-43.983C5.408,-45.592 5.408,-47.201 7.107,-48.81L34.596,-76.031Z" style="fill:white;fill-rule:nonzero;"/>
                    <path d="M73.045,-76.031L69.961,-72.947C68.978,-71.963 68.509,-71.136 68.554,-70.466C68.598,-69.795 69.112,-68.969 70.095,-67.985L91.816,-46.396L70.095,-24.807C69.112,-23.824 68.598,-22.997 68.554,-22.326C68.509,-21.656 68.978,-20.829 69.961,-19.846L73.045,-16.762L100.531,-43.983C102.229,-45.592 102.229,-47.201 100.531,-48.81L73.045,-76.031Z" style="fill:white;fill-rule:nonzero;"/>
                </g>
                <g id="_--copy" serif:id=" copy" transform="matrix(0.908941,0,0,0.908941,61.0822,110.637)">
                    <path d="M0,-32.577C0,-37.66 1.467,-41.634 4.401,-44.499C7.336,-47.364 11.39,-48.796 16.566,-48.796C17.998,-48.796 19.46,-48.548 20.95,-48.051C22.44,-47.554 23.826,-46.884 25.108,-46.041C26.391,-45.198 27.494,-44.406 28.418,-43.667C29.342,-42.928 30.22,-42.142 31.052,-41.31C31.884,-42.142 32.762,-42.928 33.686,-43.667C34.61,-44.406 35.713,-45.198 36.996,-46.041C38.278,-46.884 39.664,-47.554 41.154,-48.051C42.645,-48.548 44.106,-48.796 45.538,-48.796C50.714,-48.796 54.769,-47.364 57.703,-44.499C60.637,-41.634 62.104,-37.66 62.104,-32.577C62.104,-27.471 59.459,-22.272 54.168,-16.982L32.577,3.812C32.161,4.228 31.653,4.436 31.052,4.436C30.451,4.436 29.943,4.228 29.527,3.812L7.902,-17.051C7.671,-17.236 7.353,-17.536 6.949,-17.952C6.544,-18.368 5.903,-19.125 5.025,-20.222C4.147,-21.319 3.362,-22.446 2.669,-23.601C1.975,-24.756 1.357,-26.154 0.814,-27.794C0.271,-29.435 0,-31.029 0,-32.577Z" style="fill:white;fill-rule:nonzero;"/>
                </g>
            </g>
            <g id="iLoveCoding" transform="matrix(20.198,0,0,20.3224,2212.87,1651.28)">
                <text x="0px" y="0px" style="font-family:'LilyScriptOne-Regular', 'Lily Script One';font-size:59.066px;fill:white;">iLoveCoding</text>
            </g>
        </g>
    </g>
    <g>
        <g transform="matrix(0.785714,0,0,0.515008,3.99236e-13,0)">
            <rect x="0" y="0" width="4200" height="371"/>
        </g>
        <g transform="matrix(3.39625,0,0,3.39625,-2758.56,-4814.84)">
            <text x="1043.55px" y="1475.92px" style="font-family:'Roboto-Bold', 'Roboto';font-weight:700;font-size:50px;fill:white;">Ja<tspan x="1098.53px 1123.66px " y="1475.92px 1475.92px ">va</tspan>Script Cheatsheet</text>
        </g>
        <g transform="matrix(0.785714,0,0,-0.448588,7.14603e-13,357.494)">
            <rect x="0" y="0" width="4200" height="371" style="fill:rgb(128,128,128);"/>
        </g>
        <g transform="matrix(1,0,0,1,29.7522,244.651)">
            <text x="708.48px" y="38.086px" style="font-family:'Roboto-Regular', 'Roboto';font-size:50px;fill:white;">Learn Ja<tspan x="902.108px 926.888px " y="38.086px 38.086px ">va</tspan>Script Corr<tspan x="1193.86px " y="38.086px ">e</tspan>ctly (<tspan x="1331.36px " y="38.086px ">V</tspan>ideo course)</text>
            <text x="1728.13px" y="38.086px" style="font-family:'Roboto-Regular', 'Roboto';font-size:50px;fill:white;">https://ilo<tspan x="1953.06px 1977.89px " y="38.086px 38.086px ">ve</tspan>coding.or<tspan x="2215.61px " y="38.086px ">g</tspan>/courses/js2</text>
            <rect x="1728.13" y="41.748" width="803.882" height="2.441" style="fill:white;"/>
        </g>
        <g transform="matrix(1,0,0,1,306,-7.15751)">
            <text x="2780.13px" y="115.13px" style="font-family:'Roboto-Regular', 'Roboto';font-size:50px;fill:white;">P<tspan x="2811.9px " y="115.13px ">a</tspan>ge 1</text>
        </g>
        <g transform="matrix(0.062767,0,0,0.062767,50.8447,28.9895)">
            <g transform="matrix(12.7135,0,0,12.7135,-97.0322,-84.0328)">
                <path d="M180,90C180,40.328 139.672,0 90,0C40.328,0 0,40.328 0,90C0,139.672 40.328,180 90,180C139.672,180 180,139.672 180,90Z" style="fill:rgb(23,114,242);"/>
            </g>
            <g id="bigger1" serif:id="bigger" transform="matrix(11.1111,0,0,11.1111,54.8868,51.9249)">
                <g id="_----1" serif:id="&lt; &gt; " transform="matrix(1.61494,0,0,1.61494,2.39238,165.67)">
                    <text x="0px" y="0px" style="font-family:'Rationale-Regular', 'Rationale';font-size:134.093px;fill:white;">&lt;</text>
                    <text x="60.838px" y="0px" style="font-family:'Rationale-Regular', 'Rationale';font-size:134.093px;fill:white;">&gt;</text>
                </g>
                <g id="_--copy1" serif:id=" copy" transform="matrix(0.908941,0,0,0.908941,61.7115,110.637)">
                    <text x="0px" y="0px" style="font-family:'FontAwesome';font-size:62.104px;fill:white;"></text>
                </g>
            </g>
            <g id="iLoveCoding1" serif:id="iLoveCoding" transform="matrix(20.198,0,0,20.3224,2531.51,1491.96)">
                <text x="0px" y="0px" style="font-family:'LilyScriptOne-Regular', 'Lily Script One';font-size:59.066px;fill:white;">iLoveCoding</text>
            </g>
        </g>
    </g>
</svg>
